<svg width="512" height="512" viewBox="0 0 512 512" fill="none" xmlns="http://www.w3.org/2000/svg">
<rect width="512" height="512" fill="#3035E2"/>
<path d="M238.9 324.7C224.3 324.7 210.9 321.3 198.7 314.5C186.5 307.7 176.8 298 169.6 285.4C162.6 272.8 159.1 257.9 159.1 240.7C159.1 223.5 162.6 208.7 169.6 196.3C176.8 183.7 186.5 174 198.7 167.2C210.9 160.2 224.3 156.7 238.9 156.7C253.7 156.7 265.9 159.7 275.5 165.7C285.1 171.7 292.3 180.9 297.1 193.3C301.9 205.5 304.3 221.3 304.3 240.7C304.3 259.9 301.7 275.7 296.5 288.1C291.5 300.3 284.1 309.5 274.3 315.7C264.7 321.7 252.9 324.7 238.9 324.7ZM250.9 279.4C257.3 279.4 263 277.9 268 274.9C273.2 271.9 277.3 267.5 280.3 261.7C283.5 255.9 285.1 248.9 285.1 240.7C285.1 232.5 283.5 225.5 280.3 219.7C277.3 213.9 273.2 209.5 268 206.5C263 203.5 257.3 202 250.9 202C244.5 202 238.7 203.5 233.5 206.5C228.5 209.5 224.4 213.9 221.2 219.7C218.2 225.5 216.7 232.5 216.7 240.7C216.7 248.9 218.2 255.9 221.2 261.7C224.4 267.5 228.5 271.9 233.5 274.9C238.7 277.9 244.5 279.4 250.9 279.4ZM284.2 380.2V294.7L287.2 240.7L286.9 187V159.4H341.2V380.2H284.2Z" fill="#F8F8F8"/>
<path d="M305.449 378.667L307.041 383H344V329C316.747 326.228 296.003 352.953 305.449 378.667Z" fill="#3035E2" stroke="#3035E2"/>
<path d="M350.3 405.7C340.7 405.7 332.6 402.5 326 396.1C319.4 389.7 316.1 381.6 316.1 371.8C316.1 361.6 319.4 353.5 326 347.5C332.6 341.3 340.7 338.2 350.3 338.2C359.9 338.2 368 341.3 374.6 347.5C381.2 353.5 384.5 361.6 384.5 371.8C384.5 381.6 381.2 389.7 374.6 396.1C368 402.5 359.9 405.7 350.3 405.7Z" fill="#F8F8F8"/>
</svg>
