<svg width="17" height="17" viewBox="0 0 17 17" fill="none" xmlns="http://www.w3.org/2000/svg">
<path fill-rule="evenodd" clip-rule="evenodd" d="M13.5088 13.5081C11.3441 15.6732 8.13855 16.1409 5.51534 14.9278C5.12808 14.7718 4.81059 14.6458 4.50876 14.6458C3.66806 14.6508 2.62162 15.466 2.07776 14.9228C1.53389 14.3788 2.34969 13.3316 2.34969 12.4858C2.34969 12.1839 2.22867 11.8721 2.07277 11.4841C0.859048 8.86131 1.32745 5.65473 3.49223 3.49043C6.25567 0.725965 10.7454 0.725965 13.5088 3.48972C16.2773 6.25846 16.2723 10.7444 13.5088 13.5081Z" stroke="#101499" stroke-width="1.5" stroke-linecap="round" stroke-linejoin="round"/>
<path d="M11.2903 8.79264H11.2967" stroke="#101499" stroke-width="2" stroke-linecap="round" stroke-linejoin="round"/>
<path d="M8.45071 8.79264H8.45709" stroke="#101499" stroke-width="2" stroke-linecap="round" stroke-linejoin="round"/>
<path d="M5.61099 8.79264H5.61736" stroke="#101499" stroke-width="2" stroke-linecap="round" stroke-linejoin="round"/>
</svg>
