<svg width="63" height="63" viewBox="0 0 63 63" fill="none" xmlns="http://www.w3.org/2000/svg">
<path d="M50.2102 57.8613H16.0852V5.36133H50.2102C53.0977 5.36133 55.4602 7.72383 55.4602 10.6113V52.6113C55.4602 55.4988 53.0977 57.8613 50.2102 57.8613Z" fill="#FF7043"/>
<path d="M13.125 5.25H15.75V57.75H13.125C10.2375 57.75 7.875 55.3875 7.875 52.5V10.5C7.875 7.6125 10.2375 5.25 13.125 5.25Z" fill="#BF360C"/>
<path d="M28.875 26.25C28.875 27.6424 29.4281 28.9777 30.4127 29.9623C31.3973 30.9469 32.7326 31.5 34.125 31.5C35.5174 31.5 36.8527 30.9469 37.8373 29.9623C38.8219 28.9777 39.375 27.6424 39.375 26.25C39.375 24.8576 38.8219 23.5223 37.8373 22.5377C36.8527 21.5531 35.5174 21 34.125 21C32.7326 21 31.3973 21.5531 30.4127 22.5377C29.4281 23.5223 28.875 24.8576 28.875 26.25Z" fill="#AB300B"/>
<path d="M43.3125 39.375C43.3125 39.375 40.8188 34.125 34.125 34.125C27.4313 34.125 24.9375 39.375 24.9375 39.375V42H43.3125V39.375Z" fill="#AB300B"/>
</svg>
