<svg width="47" height="47" viewBox="0 0 47 47" fill="none" xmlns="http://www.w3.org/2000/svg">
<g clip-path="url(#clip0_937_3330)">
<path d="M23.4997 37.7875C22.4597 37.7875 21.6169 36.9448 21.6169 35.9048V11.0976C21.6169 10.0576 22.4597 9.21484 23.4997 9.21484C24.5398 9.21484 25.3825 10.0576 25.3825 11.0976V35.9039C25.3825 36.9447 24.5398 37.7875 23.4997 37.7875Z" fill="#0CD3E2"/>
<path d="M23.5011 12.5169C26.4376 12.5169 28.8181 10.1364 28.8181 7.19984C28.8181 4.26333 26.4376 1.88281 23.5011 1.88281C20.5646 1.88281 18.1841 4.26333 18.1841 7.19984C18.1841 10.1364 20.5646 12.5169 23.5011 12.5169Z" fill="#185EC4"/>
<path d="M23.5011 14.3985H23.4996C19.5321 14.3985 16.302 11.1691 16.302 7.20011C16.302 3.23043 19.5306 0.000976562 23.4981 0.000976562C27.4677 0.000976562 30.6994 3.23034 30.6994 7.20011C30.6987 11.1691 27.4686 14.3977 23.5011 14.3985ZM23.4997 3.76738C22.5832 3.76738 21.7216 4.12439 21.0724 4.77283C20.424 5.4205 20.0677 6.28281 20.0677 7.20011C20.0677 9.09349 21.6078 10.6336 23.4997 10.6336C25.3931 10.6328 26.9332 9.09273 26.9347 7.20011C26.9346 5.30758 25.393 3.76738 23.4997 3.76738Z" fill="#0CD3E2"/>
<path d="M23.5011 45.1223C26.4376 45.1223 28.8181 42.7418 28.8181 39.8053C28.8181 36.8688 26.4376 34.4883 23.5011 34.4883C20.5646 34.4883 18.1841 36.8688 18.1841 39.8053C18.1841 42.7418 20.5646 45.1223 23.5011 45.1223Z" fill="#185EC4"/>
<path d="M23.5027 46.9994H23.4996C21.5769 46.9994 19.7694 46.2507 18.41 44.8914C17.0506 43.532 16.302 41.7246 16.302 39.8011C16.302 37.8791 17.0506 36.0724 18.41 34.7123C19.7694 33.3522 21.5754 32.6035 23.4982 32.6035C27.4694 32.6035 30.6995 35.8321 30.6995 39.8019C30.7003 43.7708 27.4709 46.9986 23.5027 46.9994ZM23.5027 36.3698C22.5816 36.3698 21.7215 36.7268 21.0723 37.3753C20.4254 38.0229 20.0676 38.8853 20.0676 39.8018C20.0676 40.7198 20.4254 41.5814 21.0723 42.2298C21.7192 42.8783 22.5815 43.2345 23.4982 43.2345L23.5027 45.1173V43.2345C25.3945 43.2345 26.9346 41.6952 26.9346 39.8026C26.9346 37.91 25.3945 36.3698 23.5027 36.3698Z" fill="#0CD3E2"/>
<path d="M35.9044 25.3837H11.0966C10.0566 25.3837 9.21387 24.541 9.21387 23.5009C9.21387 22.4609 10.0566 21.6182 11.0966 21.6182H35.9037C36.9437 21.6182 37.7865 22.4609 37.7865 23.5009C37.7865 24.541 36.9444 25.3837 35.9044 25.3837Z" fill="#0CD3E2"/>
<path d="M39.8048 28.8186C42.7413 28.8186 45.1218 26.4381 45.1218 23.5016C45.1218 20.5651 42.7413 18.1846 39.8048 18.1846C36.8683 18.1846 34.4878 20.5651 34.4878 23.5016C34.4878 26.4381 36.8683 28.8186 39.8048 28.8186Z" fill="#185EC4"/>
<path d="M39.8009 30.6995C35.832 30.6995 32.6033 27.4709 32.6033 23.5011C32.6033 19.5313 35.8304 16.3027 39.7993 16.3027C41.725 16.3027 43.5326 17.0514 44.892 18.4108C46.2514 19.7702 47 21.5776 47 23.5011C46.9991 27.4701 43.7705 30.6995 39.8009 30.6995ZM39.8016 20.0684C37.9068 20.0684 36.3681 21.6085 36.3681 23.5011C36.3681 25.3937 37.9083 26.9338 39.8001 26.9338C41.6935 26.9338 43.2336 25.3937 43.2336 23.5011C43.2336 21.6085 41.6949 20.0684 39.8016 20.0684Z" fill="#0CD3E2"/>
<path d="M7.19911 28.8176C10.1356 28.8176 12.5161 26.4371 12.5161 23.5006C12.5161 20.5641 10.1356 18.1836 7.19911 18.1836C4.26259 18.1836 1.88208 20.5641 1.88208 23.5006C1.88208 26.4371 4.26259 28.8176 7.19911 28.8176Z" fill="#185EC4"/>
<path d="M7.20133 30.6992C3.23165 30.6992 0.000764888 27.4706 0 23.5016C0 19.5319 3.23012 16.3018 7.19913 16.3018C11.1688 16.3025 14.3983 19.5319 14.3983 23.5009C14.3974 27.4698 11.1703 30.6992 7.20133 30.6992ZM7.19837 20.0674C5.30498 20.0674 3.76488 21.6075 3.76488 23.5009C3.76641 25.3935 5.30651 26.9336 7.19989 26.9336H7.20142C9.09328 26.9336 10.6319 25.3935 10.6319 23.5009C10.6319 21.6083 9.09165 20.0681 7.19837 20.0674Z" fill="#0CD3E2"/>
<path d="M9.31694 39.5676C8.8342 39.5676 8.35366 39.3838 7.98546 39.0163C7.24964 38.2813 7.24964 37.0891 7.98546 36.354L36.3525 7.98546C37.0883 7.24964 38.2797 7.24964 39.0148 7.98546C39.7506 8.72052 39.7506 9.91269 39.0148 10.6478L10.6485 39.0163C10.2802 39.3838 9.79978 39.5676 9.31694 39.5676Z" fill="#0CD3E2"/>
<path d="M37.6839 39.5668C37.2027 39.5668 36.7206 39.383 36.3524 39.0155L7.98375 10.6484C7.24793 9.91338 7.24793 8.72121 7.98375 7.98615C8.71957 7.25109 9.91098 7.25033 10.6476 7.98615L39.0146 36.3532C39.7504 37.0882 39.7504 38.2804 39.0146 39.0155C38.6471 39.383 38.1666 39.5668 37.6839 39.5668Z" fill="#0CD3E2"/>
</g>
<defs>
<clipPath id="clip0_937_3330">
<rect width="47" height="47" fill="white"/>
</clipPath>
</defs>
</svg>
