<svg width="64" height="64" viewBox="0 0 64 64" fill="none" xmlns="http://www.w3.org/2000/svg">
<g clip-path="url(#clip0_1200_3691)">
<path d="M37.7266 28.6225V36.5705V38.3997H45.1371V31.5883V21.4102L37.7266 28.6225Z" fill="#EDC272"/>
<path d="M41.1483 28.6225L45.1371 24.7403V21.4102L37.7266 28.6225V36.5705V38.3997H41.1483V36.5705V28.6225Z" fill="#EABB71"/>
<path d="M49.5158 18.8633C47.4727 18.8633 45.8105 20.5255 45.8105 22.5685V31.7035V48.8202H53.221V34.5554V22.5685C53.221 20.5255 51.5589 18.8633 49.5158 18.8633Z" fill="#EDC272"/>
<path d="M49.2323 22.5685C49.2323 21.1425 50.0428 19.9028 51.2267 19.2835C50.7144 19.0157 50.1328 18.8633 49.5158 18.8633C47.4727 18.8633 45.8105 20.5255 45.8105 22.5685V31.7035V48.8202H49.2323V31.7037V22.5685Z" fill="#EABB71"/>
<path d="M18.7612 19.1211L18.856 22.3236C18.8605 22.4045 18.8632 22.4857 18.8632 22.5677V31.5883V36.5705L26.2737 40.4068V36.5705V26.4102L18.7612 19.1211Z" fill="#EDC272"/>
<path d="M22.2849 36.5703V31.5882V22.5676C22.2849 22.558 22.2841 22.5487 22.2841 22.5392L18.7612 19.1211L18.856 22.3236C18.8605 22.4045 18.8632 22.4857 18.8632 22.5677V31.5883V36.5705L26.2737 40.4068V38.6355L22.2849 36.5703Z" fill="#EABB71"/>
<path d="M14.4841 18.8633C12.4411 18.8633 10.7788 20.5255 10.7788 22.5685V34.5554V43.6642H18.1893V31.7034V22.5685C18.1893 20.5255 16.5272 18.8633 14.4841 18.8633Z" fill="#EDC272"/>
<path d="M14.2006 22.5685C14.2006 21.1425 15.0111 19.9028 16.1949 19.2835C15.6827 19.0157 15.1011 18.8633 14.4841 18.8633C12.4411 18.8633 10.7788 20.5255 10.7788 22.5685V34.5554V43.6642H14.2006V34.5554V22.5685Z" fill="#EABB71"/>
<path d="M32.3364 62.6517V45.1747C32.3364 43.7188 32.9032 42.3502 33.9318 41.3205L37.5915 37.6575L37.6092 37.6423C37.6212 37.6318 37.6323 37.6208 37.6423 37.6092L37.6581 37.5909L41.6953 33.5502C42.5104 32.7343 43.5927 32.2852 44.7427 32.2852C44.8851 32.2852 45.0293 32.2923 45.1714 32.3063C46.4628 32.4338 47.6166 33.1264 48.3366 34.2065L48.4018 34.3044C49.5458 36.0204 49.3536 38.344 47.9448 39.8298L42.5404 45.2345C42.409 45.366 42.409 45.5798 42.5404 45.7112C42.6262 45.7969 42.7266 45.8095 42.7787 45.8095C42.8308 45.8095 42.9311 45.7968 43.0169 45.711L43.3503 45.3777C44.1919 44.536 46.4687 42.2595 48.3389 40.3908C48.3644 40.3654 48.4202 40.3078 48.4202 40.3078L53.7959 34.9322C53.8596 34.8684 53.8946 34.7838 53.8946 34.6938V17.8517C53.8946 15.437 55.859 13.4727 58.2735 13.4727C60.688 13.4727 62.6525 15.437 62.6525 17.8517V40.3865C62.6525 41.8079 62.0336 43.1537 60.9544 44.0784L55.3604 48.8733C54.0008 50.0388 53.2209 51.7343 53.2209 53.525V59.6292C53.2209 61.2957 51.8651 62.6515 50.1986 62.6515H32.3364V62.6517Z" fill="#EFCA83"/>
<path d="M13.8012 62.6517C12.1347 62.6517 10.7788 61.2958 10.7788 59.6292V53.525C10.7788 51.7343 9.99892 50.0387 8.63929 48.8734L3.04529 44.0785C1.96617 43.1537 1.34717 41.8079 1.34717 40.3867V17.8517C1.34717 15.437 3.31167 13.4727 5.72617 13.4727C8.14067 13.4727 10.1052 15.437 10.1052 17.8517V34.6938C10.1052 34.7838 10.1402 34.8684 10.2039 34.9322L15.5839 40.3125C15.6093 40.3389 15.635 40.3654 15.661 40.3914C17.5188 42.2475 19.778 44.5065 20.6327 45.3612L20.9827 45.7113C21.0684 45.797 21.1688 45.8097 21.2209 45.8097C21.273 45.8097 21.3733 45.7969 21.4592 45.7112C21.5904 45.5798 21.5904 45.3662 21.4592 45.2348L16.0548 39.8302C14.646 38.3444 14.4537 36.0209 15.5975 34.305L15.663 34.2068C16.383 33.1268 17.5367 32.4343 18.8283 32.3068C18.9702 32.2928 19.1143 32.2857 19.2565 32.2857C20.4069 32.2857 21.4892 32.7349 22.3042 33.5507L26.3414 37.5914L26.3572 37.6097C26.3672 37.6213 26.3783 37.6323 26.3903 37.6428L26.4079 37.658L30.0677 41.321C31.0965 42.3508 31.663 43.7195 31.663 45.1752V62.6519H13.8012V62.6517Z" fill="#EFCA83"/>
<path d="M18.3184 28.5446V10.1055H45.4005V28.5446C45.4005 29.002 45.0297 29.3728 44.5722 29.3728H19.1466C18.6894 29.3728 18.3184 29.0021 18.3184 28.5446Z" fill="#FF6342"/>
<path d="M21.8425 28.5446V10.1055H18.3188V28.5446C18.3188 29.002 18.6896 29.3728 19.1471 29.3728H22.6707C22.2132 29.3728 21.8425 29.0021 21.8425 28.5446Z" fill="#FE5025"/>
<path d="M19.1512 13.2037C17.8677 13.2037 16.9712 12.5587 16.9712 11.6352V7.90053C16.9712 6.97703 17.8676 6.33203 19.1512 6.33203H45.1797C46.0444 6.33203 46.7482 7.03566 46.7482 7.90053V11.6353C46.7482 12.5002 46.0446 13.2038 45.1797 13.2038L19.1512 13.2037Z" fill="#FF3501"/>
<path d="M20.4948 11.6352V7.90053C20.4948 6.97703 21.3912 6.33203 22.6748 6.33203H19.1512C17.8677 6.33203 16.9712 6.97703 16.9712 7.90053V11.6353C16.9712 12.5588 17.8676 13.2038 19.1512 13.2038H22.6748C21.3913 13.2037 20.4948 12.5587 20.4948 11.6352Z" fill="#AC2201"/>
<path d="M34.6219 13.0703H29.0977V29.3734H34.6219V13.0703Z" fill="#FFA733"/>
<path d="M35.969 6.33203H27.75V13.2037H35.969V6.33203Z" fill="#FFA733"/>
<path d="M35.9018 0.943359C34.3786 0.943359 33.1396 2.18236 33.1396 3.70548C33.1396 5.22861 34.3786 6.46761 35.9018 6.46761C37.4249 6.46761 38.6639 5.22861 38.6639 3.70548C38.6639 2.18236 37.4248 0.943359 35.9018 0.943359ZM35.9018 4.43123C35.5016 4.43123 35.176 4.10573 35.176 3.70548C35.176 3.30523 35.5015 2.97973 35.9018 2.97973C36.3019 2.97973 36.6275 3.30523 36.6275 3.70548C36.6275 4.10573 36.302 4.43123 35.9018 4.43123Z" fill="#FFA733"/>
<path d="M27.7499 0.943359C26.2268 0.943359 24.9878 2.18236 24.9878 3.70548C24.9878 5.22861 26.2268 6.46761 27.7499 6.46761C29.273 6.46761 30.512 5.22861 30.512 3.70548C30.512 2.18236 29.273 0.943359 27.7499 0.943359ZM27.7499 4.43123C27.3498 4.43123 27.0242 4.10573 27.0242 3.70548C27.0242 3.30523 27.3497 2.97973 27.7499 2.97973C28.15 2.97973 28.4757 3.30523 28.4757 3.70548C28.4757 4.10573 28.1502 4.43123 27.7499 4.43123Z" fill="#FFA733"/>
<path d="M37.354 41.3225L41.0138 37.6595L41.0314 37.6442C41.0434 37.6337 41.0545 37.6227 41.0645 37.6111L41.0803 37.5929L45.1175 33.5521C45.5092 33.1601 45.963 32.8537 46.4559 32.6402C46.0527 32.4667 45.6209 32.3526 45.1719 32.3082C45.0298 32.2942 44.8855 32.2871 44.7432 32.2871C43.593 32.2871 42.511 32.7364 41.6958 33.5521L37.6585 37.5929L37.6428 37.6111C37.6328 37.6227 37.6217 37.6337 37.6097 37.6442L37.592 37.6595L33.9323 41.3225C32.9035 42.3521 32.3369 43.7209 32.3369 45.1766V62.6536H35.7587V45.1766C35.7587 43.7209 36.3253 42.3521 37.354 41.3225Z" fill="#EABB71"/>
<path d="M14.2007 59.631V53.5269C14.2007 51.7361 13.4208 50.0405 12.0612 48.8752L6.46717 44.0804C5.38804 43.1555 4.76904 41.8096 4.76904 40.3885V17.8535C4.76904 16.0457 5.87042 14.4905 7.43704 13.8229C6.91117 13.5987 6.33304 13.4746 5.72617 13.4746C3.31167 13.4746 1.34717 15.439 1.34717 17.8536V40.3884C1.34717 41.8097 1.96617 43.1555 3.04529 44.0802L8.63929 48.8751C9.99904 50.0406 10.7788 51.7361 10.7788 53.5269V59.631C10.7788 61.2975 12.1347 62.6534 13.8012 62.6534H17.2229C15.5565 62.6535 14.2007 61.2976 14.2007 59.631Z" fill="#EABB71"/>
<path d="M58.2736 12.1264C54.8194 12.1264 52.4069 14.2041 52.4069 17.179V18.5292C51.5618 17.8934 50.5119 17.5159 49.3753 17.5159C48.2386 17.5159 47.1887 17.8932 46.3436 18.5292V13.8594C47.1435 13.4389 47.691 12.6006 47.691 11.636V7.90112C47.691 6.51625 46.5644 5.3895 45.1794 5.3895H39.2001C39.4594 4.88388 39.6068 4.31163 39.6068 3.70525C39.607 1.66225 37.9449 0 35.9017 0C33.8586 0 32.1965 1.66225 32.1965 3.70525C32.1965 4.31163 32.3438 4.88375 32.6031 5.3895H31.1162C31.3755 4.88388 31.5229 4.31163 31.5229 3.70525C31.5229 1.66225 29.8607 0 27.8176 0C25.7745 0 24.1124 1.66225 24.1124 3.70525C24.1124 4.31163 24.2596 4.88375 24.519 5.3895H18.5397C17.1549 5.3895 16.0281 6.51612 16.0281 7.90112V11.6359C16.0281 12.6006 16.5755 13.4388 17.3755 13.8593V18.5291C16.5304 17.8933 15.4805 17.5158 14.3439 17.5158C13.2072 17.5158 12.1574 17.8931 11.3123 18.5291V17.1789C11.3123 14.1567 9.06738 12.1263 5.72638 12.1263C2.56875 12.1264 0 14.6951 0 17.8526V40.3875C0 42.2028 0.7905 43.9214 2.16875 45.1025L7.76275 49.8974C8.82325 50.8066 9.43163 52.1291 9.43163 53.5261V59.6302C9.43163 62.0397 11.3919 64 13.8015 64H50.1986C52.6081 64 54.5684 62.0397 54.5684 59.6301V53.526C54.5684 52.1291 55.1767 50.8065 56.2374 49.8973L61.8314 45.1024C63.2095 43.9214 64 42.2028 64 40.3875V17.8526C64 14.6951 61.4312 12.1264 58.2736 12.1264ZM46.3439 22.5684C46.3439 20.8969 47.7037 19.5368 49.3755 19.5368C51.0472 19.5368 52.4071 20.8967 52.4071 22.5684V34.28L50.4734 36.2394C50.3861 35.3045 50.0724 34.3814 49.5238 33.5585L49.4581 33.4601C48.7116 32.3405 47.6094 31.5401 46.344 31.1699V22.5684H46.3439ZM45.1796 7.4105C45.45 7.4105 45.6702 7.6305 45.6702 7.90112V11.6359C45.6702 11.9064 45.4503 12.1265 45.1796 12.1265H36.9123V7.4105H45.1796ZM35.5649 28.2948V14.1474H44.3228V28.2948H35.5649ZM44.3228 30.3158V30.9551C42.9803 31.0544 41.7126 31.6281 40.7426 32.5989L38.2595 35.0841V30.3158H44.3228ZM35.9017 2.021C36.8305 2.021 37.586 2.7765 37.586 3.70525C37.586 4.634 36.8305 5.3895 35.9017 5.3895C34.973 5.3895 34.2175 4.634 34.2175 3.70525C34.2175 2.7765 34.9731 2.021 35.9017 2.021ZM34.8911 7.4105V12.1263H28.828V7.4105H34.8911ZM33.5438 14.1474V28.2948H30.1754V14.1474H33.5438ZM27.8175 2.021C28.7462 2.021 29.5018 2.7765 29.5018 3.70525C29.5018 4.634 28.7462 5.3895 27.8175 5.3895C26.8887 5.3895 26.1332 4.634 26.1332 3.70525C26.1332 2.7765 26.8889 2.021 27.8175 2.021ZM19.3965 28.2948V14.1474H28.1544V28.2948H19.3965ZM25.4596 30.3158V34.8031L23.2574 32.599C22.2201 31.5609 20.8422 30.9772 19.3965 30.942V30.3158H25.4596ZM18.0491 7.90112C18.0491 7.63062 18.2691 7.4105 18.5397 7.4105H26.8071V12.1263H18.5397C18.2694 12.1263 18.0491 11.9062 18.0491 11.6356V7.90112ZM30.9895 61.979H13.8015C12.5043 61.979 11.4526 60.9274 11.4526 59.6301V53.526C11.4526 51.5384 10.5871 49.6565 9.07788 48.3629L3.48388 43.568C2.55538 42.7723 2.021 41.6102 2.021 40.3874V17.8526C2.021 15.8096 3.68313 14.1474 5.72625 14.1474C6.5625 14.1474 9.29113 14.3659 9.29113 17.179V25.4245C9.29113 25.9826 9.74363 26.435 10.3016 26.435C10.8598 26.435 11.3121 25.9825 11.3121 25.4245V22.643C11.3121 21.0012 12.5863 19.6011 14.2268 19.5392C15.9514 19.474 17.3752 20.8582 17.3752 22.5686V31.26C16.228 31.6616 15.2324 32.4244 14.5416 33.4605L14.4764 33.5585C13.8877 34.4414 13.5696 35.4391 13.5111 36.4435L11.3121 34.2728V30.347C11.3121 29.7889 10.8596 29.3365 10.3016 29.3365C9.7435 29.3365 9.29113 29.789 9.29113 30.347V34.6949C9.29113 34.9651 9.3995 35.2242 9.59175 35.4141L20.5111 46.1931C20.9074 46.5841 21.5455 46.5813 21.9379 46.1861C22.3304 45.7911 22.3293 45.1531 21.9356 44.7593C21.9356 44.7593 18.9556 41.7792 16.6135 39.439C15.3518 38.1781 15.1603 36.1764 16.1585 34.6791L16.2237 34.5811C16.8312 33.6699 17.8047 33.0854 18.8946 32.9779C19.9839 32.8701 21.0535 33.2526 21.8277 34.0275L29.5911 41.7976C30.4866 42.6939 30.9895 43.909 30.9895 45.1758V61.979ZM32 41.6071C31.7254 41.1635 31.399 40.7476 31.0209 40.3691L27.4806 36.8259V30.3158H36.2385V37.1069L32.9791 40.3691C32.6013 40.7475 32.2746 41.1635 32 41.6071ZM61.979 40.3875C61.979 41.612 61.4459 42.7711 60.5161 43.568L54.922 48.3629C53.413 49.6566 52.5474 51.5385 52.5474 53.5261V59.6302C52.5474 60.9254 51.4937 61.9791 50.1986 61.9791H33.0105V45.1756C33.0105 43.8997 33.5071 42.7003 34.4087 41.7976L42.1722 34.0274C42.9387 33.2604 43.9941 32.8782 45.073 32.9755C45.1561 32.9976 45.243 33.0105 45.3331 33.0105C45.3366 33.0105 45.3401 33.01 45.3436 33.01C46.3362 33.174 47.2134 33.7369 47.776 34.5807L47.8416 34.6791C48.7186 35.9948 48.6771 37.6999 47.7979 38.9496L42.0596 44.7636C41.6685 45.1599 41.6716 45.798 42.0666 46.1904C42.4614 46.5828 43.0996 46.5816 43.4934 46.1881C43.4934 46.188 46.4731 43.2084 48.8151 40.8681C49.0065 40.6769 49.182 40.4747 49.3411 40.2632L54.1366 35.4044C54.3232 35.2154 54.4279 34.9601 54.4279 34.6945V17.1786C54.4279 15.0844 56.3594 14.147 58.2735 14.147C60.3165 14.147 61.9787 15.8092 61.9787 17.8522V40.3875H61.979Z" fill="black"/>
</g>
<defs>
<clipPath id="clip0_1200_3691">
<rect width="64" height="64" fill="white"/>
</clipPath>
</defs>
</svg>
