<svg width="25" height="24" viewBox="0 0 25 24" fill="none" xmlns="http://www.w3.org/2000/svg">
<path fill-rule="evenodd" clip-rule="evenodd" d="M19.8774 13.9622C19.0304 12.0992 19.0524 11.3982 19.0914 10.1242C19.1014 9.82317 19.1114 9.49617 19.1114 9.12117C19.1114 6.14417 16.9824 1.95117 12.2504 1.95117C7.51836 1.95117 5.38936 6.14417 5.38936 9.12117C5.38936 9.49517 5.39936 9.82317 5.40936 10.1242C5.44836 11.3982 5.46936 12.0992 4.61336 13.9872C4.24736 14.9312 4.29136 15.7462 4.74636 16.4102C5.83836 18.0082 8.99836 18.2282 12.2504 18.2282C15.5024 18.2282 18.6624 18.0082 19.7544 16.4102C20.2104 15.7462 20.2544 14.9312 19.8774 13.9622Z" fill="black"/>
<path fill-rule="evenodd" clip-rule="evenodd" d="M14.9477 19.2405C13.3167 19.4215 11.5487 19.4205 9.53865 19.2385C9.23765 19.2145 8.93965 19.3735 8.80165 19.6485C8.66265 19.9245 8.70666 20.2555 8.91165 20.4855C9.81166 21.4925 10.9957 22.0485 12.2457 22.0485H12.2477C13.5007 22.0485 14.6877 21.4935 15.5897 20.4855C15.7967 20.2545 15.8397 19.9185 15.6977 19.6415C15.5547 19.3665 15.2607 19.2125 14.9477 19.2405Z" fill="black"/>
</svg>
