<svg width="64" height="64" viewBox="0 0 64 64" fill="none" xmlns="http://www.w3.org/2000/svg">
<g clip-path="url(#clip0_1148_4129)">
<path d="M21.8288 3.42773C19.2003 3.42773 17.0288 5.94199 17.0288 9.14204L17.1431 46.8564H37.2573V54.8564C37.2573 58.1708 38.1716 60.3422 40.8002 60.5708C44.0002 60.5708 46.8573 57.485 46.8573 53.7136V9.14204C46.8573 5.82772 48.6859 3.77054 51.4287 3.42773H21.8288Z" fill="#FFDD09"/>
<path d="M40.0002 34.2852C36.2288 34.2852 33.1431 37.3709 33.1431 41.1423C33.1431 43.5423 34.4002 45.5995 36.2288 46.8566H37.7145V47.6567C38.4003 47.8852 39.2002 47.9995 40.0002 47.9995C43.7716 47.9995 46.8574 44.9137 46.8574 41.1423C46.8574 37.3709 43.7716 34.2852 40.0002 34.2852Z" fill="#54C9FD"/>
<path d="M40.0001 47.9994C39.2 47.9994 38.4001 47.8851 37.7144 47.5423V53.1423L40.0001 51.4281L44.5715 54.8567V46.2852C43.3142 47.3137 41.7143 47.9994 40.0001 47.9994Z" fill="#54C9FD"/>
<path d="M62.8569 9.14204C62.8569 5.71346 59.9999 3.42773 56.5713 3.42773C53.1427 3.42773 50.2856 5.71346 50.2856 9.14204V19.4278H62.8571V9.14204H62.8569Z" fill="#FD9808"/>
<path d="M59.4287 9.14204C59.4287 5.71346 56.5716 3.42773 53.1431 3.42773C49.7145 3.42773 46.8574 5.71346 46.8574 9.14204V19.4278H59.4289L59.4287 9.14204Z" fill="#FCC309"/>
<path d="M37.7146 54.8574V46.8574H13.7145H6.85737H1.14307V54.8574C1.14307 58.1718 3.65732 60.3432 6.85737 60.5717H43.4289C40.2289 60.3432 37.7146 58.1718 37.7146 54.8574Z" fill="white"/>
<path d="M37.1427 54.8574V46.8574H15.7714H9.71407H4.57129V54.8574C4.57129 58.1718 6.85701 60.3432 9.71407 60.5717H42.2855C39.4284 60.3432 37.1427 58.1718 37.1427 54.8574Z" fill="#FCC309"/>
<path d="M51.4285 3.42773C48.8 3.77054 46.8571 5.82772 46.8571 9.14204V53.7136C46.8571 56.9136 44.7999 59.6564 42.1714 60.3422C42.5142 60.4565 42.9714 60.4565 43.4285 60.5708C47.1999 60.5708 50.2857 57.485 50.2857 53.7136V9.14204C50.2857 5.82772 52.7999 3.77054 56 3.42773H51.4285Z" fill="#FD9808"/>
<path d="M21.8286 3.42773H19.4287C16.2286 3.42773 13.7144 5.94199 13.7144 9.14204V46.8563H17.1429L17.0287 9.14204C17.0287 5.94199 19.2001 3.42773 21.8286 3.42773Z" fill="white"/>
<path d="M63.9998 20.5709H49.1426V9.14232C49.1426 5.25667 52.3426 2.28516 56.5711 2.28516C60.7995 2.28516 63.9996 5.25667 63.9996 9.14232V20.5709H63.9998ZM51.4283 18.2852H61.714V9.14232C61.714 6.17081 59.0855 4.57088 56.5713 4.57088C54.057 4.57088 51.4285 6.17081 51.4285 9.14232V18.2852H51.4283Z" fill="black"/>
<path d="M43.4287 61.7128H6.85716C2.74279 61.37 0 58.6272 0 54.8556V45.7129H38.8573V54.8558C38.8573 57.37 40.8002 59.1987 43.543 59.4272L43.4287 61.7128ZM2.28572 47.9984V54.8556C2.28572 57.3699 4.22864 59.1985 6.97143 59.427H38.4C37.2571 58.2842 36.6858 56.6842 36.6858 54.8556V47.9984H2.28572Z" fill="black"/>
<path d="M43.4285 61.7137C39.3141 61.3709 36.5714 58.6279 36.5714 54.8566V47.9994H12.5713V9.14232C12.5713 5.37093 15.6571 2.28516 19.4285 2.28516H57.1428V4.45661L56.1143 4.57088C53.8285 4.79941 51.4285 6.28508 51.4285 9.14232V53.7139C51.4284 58.1709 47.8855 61.7137 43.4285 61.7137ZM14.857 45.7139H38.8571V54.8567C38.8571 57.371 40.8 59.1996 43.5428 59.4282C46.6286 59.4282 49.1428 56.9139 49.1428 53.7139V9.14232C49.1428 7.31367 49.8286 5.71374 50.9715 4.57088H19.4285C16.9142 4.57088 14.857 6.62806 14.857 9.14232V45.7139Z" fill="black"/>
<path d="M32.0002 15.9986H20.5716C19.8858 15.9986 19.4287 15.5415 19.4287 14.8558C19.4287 14.17 19.8858 13.7129 20.5716 13.7129H32.0002C32.686 13.7129 33.143 14.17 33.143 14.8558C33.143 15.5414 32.6858 15.9986 32.0002 15.9986Z" fill="black"/>
<path d="M43.4288 21.7135H20.5716C19.8858 21.7135 19.4287 21.2564 19.4287 20.5706C19.4287 19.8848 19.8858 19.4277 20.5716 19.4277H43.4288C44.1146 19.4277 44.5716 19.8848 44.5716 20.5706C44.5716 21.2564 44.1144 21.7135 43.4288 21.7135Z" fill="black"/>
<path d="M40.0002 27.4283H20.5716C19.8858 27.4283 19.4287 26.9712 19.4287 26.2854C19.4287 25.5996 19.8858 25.1426 20.5716 25.1426H40.0002C40.686 25.1426 41.1431 25.5996 41.1431 26.2854C41.1431 26.971 40.6858 27.4283 40.0002 27.4283Z" fill="black"/>
<path d="M33.143 33.1431H20.5716C19.8858 33.1431 19.4287 32.6861 19.4287 32.0003C19.4287 31.3145 19.8858 30.8574 20.5716 30.8574H33.143C33.8288 30.8574 34.2859 31.3145 34.2859 32.0003C34.2859 32.6861 33.8286 33.1431 33.143 33.1431Z" fill="black"/>
<path d="M28.5716 38.856H20.5716C19.8858 38.856 19.4287 38.399 19.4287 37.7132C19.4287 37.0274 19.8858 36.5703 20.5716 36.5703H28.5716C29.2574 36.5703 29.7145 37.0274 29.7145 37.7132C29.7145 38.3988 29.2572 38.856 28.5716 38.856Z" fill="black"/>
<path d="M40 49.1426C39.0857 49.1426 38.1714 49.0284 37.3715 48.6855C37.0287 48.5713 36.8002 48.3427 36.6857 47.9998H36.2286C36.0001 47.9998 35.7716 47.8855 35.5428 47.7712C33.2571 46.2856 32 43.7713 32 41.1426C32 36.6854 35.5428 33.1426 40 33.1426C44.4572 33.1426 48 36.6854 48 41.1426C48 45.5998 44.457 49.1426 40 49.1426ZM38.8572 46.7426C39.2 46.8569 39.6572 46.8569 40 46.8569C43.2001 46.8569 45.7143 44.3426 45.7143 41.1426C45.7143 37.9426 43.2001 35.4283 40 35.4283C36.8 35.4283 34.2857 37.9426 34.2857 41.1426C34.2857 42.9712 35.0858 44.6855 36.5714 45.714H37.7143C38.2856 45.7142 38.7427 46.1713 38.8572 46.7426Z" fill="black"/>
<path d="M44.5713 55.9996C44.3428 55.9996 44.1142 55.8854 43.8855 55.7711L39.9999 52.914L38.3999 54.0569C38.0571 54.2854 37.5999 54.3997 37.2571 54.1712C36.9143 53.9426 36.5713 53.5998 36.5713 53.1426V47.5425C36.5713 47.1997 36.7998 46.8568 37.0284 46.6282C37.3712 46.3997 37.7141 46.3997 38.057 46.514C40.1141 47.1997 42.2856 46.7425 43.7713 45.3711C44.1141 45.0283 44.5713 45.0283 45.0284 45.1426C45.4855 45.3711 45.7142 45.7139 45.7142 46.1712V54.8568C45.7142 55.3139 45.4856 55.6568 45.0284 55.8854C44.9141 55.9996 44.7998 55.9996 44.5713 55.9996ZM39.9999 50.2853C40.2284 50.2853 40.4569 50.3996 40.6857 50.5139L43.4285 52.5711V48.3424C42.0571 49.0282 40.4569 49.2568 38.857 49.0282V50.8569L39.3141 50.5141C39.5426 50.3998 39.7712 50.2853 39.9999 50.2853Z" fill="black"/>
</g>
<defs>
<clipPath id="clip0_1148_4129">
<rect width="64" height="64" fill="white"/>
</clipPath>
</defs>
</svg>
