<svg width="64" height="64" viewBox="0 0 64 64" fill="none" xmlns="http://www.w3.org/2000/svg">
<g clip-path="url(#clip0_939_4083)">
<path d="M8.0635 58.345C7.13306 57.8845 6.28142 56.6536 6.27527 55.7605C6.27252 55.3795 6.24391 55.3562 5.67639 55.2734C5.34852 55.2256 4.87455 55.0829 4.62313 54.9563C3.67696 54.4799 2.88403 53.1632 2.88403 52.0685C2.88403 51.5983 2.88315 51.5976 2.18623 51.4529C1.32386 51.2739 0.697296 50.7556 0.29263 49.8867L0 49.2583L0.00456885 28.4881C0.00822594 11.4624 0.0391322 7.63312 0.176895 7.24713C0.433787 6.52726 0.929394 5.95997 1.56058 5.66328L2.13229 5.39453L28.6013 5.42681L55.0704 5.4591L55.6146 5.83635C56.2147 6.25244 56.849 7.32759 56.849 7.92881C56.849 8.26151 56.8811 8.28287 57.3824 8.28352C58.995 8.28535 60.2753 9.34971 60.611 10.9669L60.7509 11.6405L61.3696 11.6999C62.4039 11.7993 63.4277 12.6642 63.8234 13.7731C63.9611 14.1591 63.9924 18.0026 63.9969 35.0859C64.0031 58.1766 64.062 56.5474 63.1833 57.5739C62.9474 57.8496 62.4993 58.195 62.1875 58.3416L61.6207 58.608L35.1076 58.6079L8.59453 58.6078L8.0635 58.345ZM62.1967 57.1981C62.451 56.9748 62.736 56.608 62.83 56.3829C63.0828 55.778 63.0807 14.4962 62.8279 13.8912C62.6311 13.4202 61.8313 12.676 61.5192 12.6735C61.4008 12.6726 61.1777 12.638 61.0234 12.5966L60.743 12.5215L60.7097 32.6558L60.6764 52.7901L60.2986 53.5288C59.8382 54.4292 59.1115 55.0186 58.2284 55.208C57.7785 55.3045 50.1241 55.345 32.3602 55.345H7.13108L7.21611 55.7529C7.34317 56.3625 7.86744 57.1995 8.25338 57.4089C8.5506 57.5703 11.9977 57.5946 35.1644 57.5989L61.7345 57.6035L62.1967 57.1981ZM58.4715 54.1573C58.9631 53.903 59.4498 53.2928 59.6042 52.737C59.7842 52.0888 59.7842 11.539 59.6042 10.8908C59.4498 10.335 58.9631 9.72473 58.4715 9.47048C58.2761 9.36942 57.831 9.28675 57.4824 9.28675H56.8487V29.342V49.3972L56.5308 50.0352C56.1752 50.7487 55.5028 51.2893 54.7548 51.4629C54.4855 51.5254 43.2463 51.5753 29.0665 51.577L3.85694 51.5797L3.91353 52.2624C3.98183 53.0858 4.4288 53.8285 5.03622 54.1278C5.423 54.3184 7.56945 54.3353 31.7864 54.3379C54.6619 54.3406 58.1628 54.3169 58.4715 54.1573ZM32.2894 41.5579C33.4496 41.287 34.4308 41.0335 34.4699 40.9943C34.509 40.9552 34.4489 40.0596 34.3363 39.004C34.2237 37.9485 34.132 37.05 34.1325 37.0074C34.133 36.9648 34.3619 36.7787 34.6413 36.5938C34.9208 36.4088 35.3734 36.0552 35.6472 35.8078L36.1451 35.358L37.6178 35.9597C38.4278 36.2907 39.2673 36.6348 39.4834 36.7244L39.8763 36.8874L41.1149 34.8526C41.7962 33.7335 42.3535 32.7807 42.3535 32.7352C42.3535 32.6897 41.6476 32.0761 40.7848 31.3715C39.821 30.5845 39.2254 30.0114 39.2402 29.8854C39.3978 28.5486 39.5316 27.5681 39.5589 27.5501C39.5774 27.5379 40.3973 27.1965 41.3809 26.7914C42.3719 26.3833 43.1693 25.9829 43.1693 25.8936C43.1693 25.6647 42.1663 21.4193 42.0954 21.3485C42.0413 21.2944 39.6279 21.5026 38.4601 21.6622C37.9717 21.7289 37.9414 21.7115 37.5307 21.1251C37.2972 20.7917 36.9449 20.3461 36.7478 20.1349L36.3894 19.751L37.1439 17.9393C37.5588 16.9429 37.8962 16.0709 37.8936 16.0016C37.8899 15.9002 34.2589 13.5948 33.8783 13.4521C33.8213 13.4307 33.1931 14.1285 32.4824 15.0027L31.1901 16.5921L30.6224 16.5023C30.3101 16.4529 29.6675 16.3764 29.1943 16.3322L28.3341 16.2519L27.5384 14.4973C27.1008 13.5322 26.6871 12.724 26.6191 12.7014C26.5176 12.6675 22.1089 13.7827 21.9849 13.8735C21.9642 13.8887 22.063 14.7261 22.2045 15.7345C22.3461 16.7428 22.4619 17.6438 22.4619 17.7368C22.4619 17.8747 21.3315 18.8638 20.7562 19.2294C20.6775 19.2794 19.8654 19.0112 18.9515 18.6333C18.0377 18.2554 17.2164 17.9462 17.1265 17.9462C17.0365 17.9462 16.4707 18.7496 15.869 19.7315C15.2674 20.7134 14.7014 21.6311 14.6113 21.7709C14.4589 22.0071 14.5575 22.113 16.0166 23.2799C17.5123 24.4761 17.5821 24.5525 17.5087 24.9114C17.4664 25.1185 17.3775 25.7087 17.3112 26.223C17.2449 26.7373 17.1484 27.1946 17.0967 27.2393C17.0449 27.284 16.2685 27.6179 15.3712 27.9815C14.4739 28.345 13.7199 28.6605 13.6956 28.6826C13.6569 28.7178 14.3588 31.7931 14.6834 33.0106L14.8016 33.4543L16.7179 33.2425C18.8815 33.0035 18.6102 32.9249 19.4147 34.0233C19.6369 34.3266 19.9445 34.7303 20.0983 34.9203L20.3779 35.2657L19.7298 36.8655C19.3734 37.7454 19.0658 38.542 19.0462 38.6357C19.0249 38.7381 19.813 39.3022 21.0187 40.0475C22.1231 40.7302 23.0555 41.2889 23.0907 41.2889C23.1259 41.289 23.6906 40.6104 24.3457 39.781L25.5366 38.273L26.2896 38.3581C26.7038 38.4049 27.3241 38.4764 27.6681 38.517L28.2936 38.5908L29.0369 40.3814C29.6157 41.7757 29.8245 42.1585 29.9802 42.1111C30.0901 42.0777 31.1293 41.8288 32.2894 41.5579ZM26.6797 34.0701C23.6526 33.2389 21.5345 30.4761 21.5345 27.3586C21.5345 24.2421 23.6871 21.4316 26.6764 20.6451C27.6541 20.3878 29.3654 20.391 30.2429 20.6515C33.2736 21.5521 35.3933 24.314 35.3865 27.3533C35.3792 30.4352 33.287 33.1683 30.2515 34.0605C29.4223 34.3042 27.551 34.3093 26.6797 34.0701ZM29.6579 29.5576C31.0879 28.8744 31.3455 26.6634 30.1238 25.5596C28.5014 24.0939 25.9759 25.2165 25.9759 27.4033C25.9759 29.2643 27.9071 30.3942 29.6579 29.5576Z" fill="#00BCF2"/>
</g>
<defs>
<clipPath id="clip0_939_4083">
<rect width="64" height="64" fill="white"/>
</clipPath>
</defs>
</svg>
