<svg width="800" height="800" viewBox="0 0 800 800" fill="none" xmlns="http://www.w3.org/2000/svg">
<g clip-path="url(#clip0_1162_3906)">
<path d="M525 625H325C318.369 625 312.011 622.366 307.322 617.677C302.634 612.989 300 606.63 300 600C300 593.369 302.634 587.01 307.322 582.322C312.011 577.634 318.369 575 325 575H500C500 561.739 494.732 549.021 485.355 539.644C475.978 530.268 463.261 525 450 525H426.8C404.39 525.018 382.48 518.379 363.85 505.925C328.408 482.295 285.873 471.676 243.484 475.874C201.094 480.072 161.469 498.827 131.35 528.95L42.6749 617.675C37.9599 622.229 31.6448 624.749 25.0899 624.692C18.535 624.635 12.2647 622.005 7.62946 617.37C2.99426 612.735 0.365034 606.465 0.308074 599.91C0.251113 593.355 2.77097 587.04 7.32492 582.325L96.0499 493.6C134.335 455.316 184.701 431.478 238.58 426.14C292.459 420.803 346.523 434.296 391.575 464.325C401.995 471.305 414.258 475.021 426.8 475H450C476.522 475 501.957 485.535 520.711 504.289C539.464 523.043 550 548.478 550 575V600C550 606.63 547.366 612.989 542.678 617.677C537.989 622.366 531.63 625 525 625Z" fill="#04009A"/>
<path d="M625 250H325C311.739 250 299.021 244.732 289.645 235.355C280.268 225.979 275 213.261 275 200V125C275 118.37 277.634 112.011 282.322 107.322C287.011 102.634 293.37 100 300 100H650C656.63 100 662.989 102.634 667.678 107.322C672.366 112.011 675 118.37 675 125V200C675 213.261 669.732 225.979 660.355 235.355C650.979 244.732 638.261 250 625 250ZM325 150V200H625V150H325Z" fill="#77ACF1"/>
<path d="M575 400H375C355.109 400 336.032 392.098 321.967 378.033C307.902 363.968 300 344.891 300 325V225C300 218.37 302.634 212.011 307.322 207.322C312.011 202.634 318.37 200 325 200H625C631.63 200 637.989 202.634 642.678 207.322C647.366 212.011 650 218.37 650 225V325C650 344.891 642.098 363.968 628.033 378.033C613.968 392.098 594.891 400 575 400ZM350 250V325C350 331.63 352.634 337.989 357.322 342.678C362.011 347.366 368.37 350 375 350H575C581.63 350 587.989 347.366 592.678 342.678C597.366 337.989 600 331.63 600 325V250H350Z" fill="#77ACF1"/>
<path d="M575 150H375C368.37 150 362.011 147.366 357.322 142.678C352.634 137.989 350 131.63 350 125V75C350 55.1088 357.902 36.0322 371.967 21.967C386.032 7.90176 405.109 0 425 0L525 0C544.891 0 563.968 7.90176 578.033 21.967C592.098 36.0322 600 55.1088 600 75V125C600 131.63 597.366 137.989 592.678 142.678C587.989 147.366 581.63 150 575 150ZM400 100H550V75C550 68.3696 547.366 62.0107 542.678 57.3223C537.989 52.6339 531.63 50 525 50H425C418.37 50 412.011 52.6339 407.322 57.3223C402.634 62.0107 400 68.3696 400 75V100Z" fill="#77ACF1"/>
<path d="M225 800C220.056 799.999 215.224 798.532 211.113 795.785C207.003 793.038 203.8 789.134 201.908 784.566C200.016 779.999 199.521 774.973 200.485 770.124C201.449 765.275 203.83 760.821 207.325 757.325C217.546 747.044 229.705 738.893 243.099 733.345C256.492 727.796 270.853 724.96 285.35 725H500C511.638 724.973 523.113 722.25 533.522 717.045C543.932 711.84 552.995 704.294 560 695L736.725 459.375C723.209 455.833 708.976 456.118 695.613 460.197C682.25 464.276 670.283 471.989 661.05 482.475L543.825 616.45C541.67 618.941 539.045 620.983 536.099 622.456C533.153 623.93 529.944 624.807 526.659 625.037C523.373 625.266 520.074 624.845 516.951 623.795C513.829 622.746 510.944 621.09 508.464 618.923C505.984 616.755 503.956 614.119 502.498 611.165C501.04 608.212 500.179 604.999 499.967 601.712C499.754 598.425 500.193 595.128 501.258 592.011C502.324 588.894 503.994 586.019 506.175 583.55L623.425 449.55C643.444 426.794 671.026 412.059 701.07 408.07C731.114 404.081 761.586 411.107 786.85 427.85C792.864 431.866 797.085 438.059 798.625 445.125C799.386 448.532 799.458 452.056 798.835 455.491C798.212 458.926 796.908 462.202 795 465.125L600 725C588.324 740.49 573.22 753.065 555.87 761.74C538.52 770.415 519.397 774.953 500 775H285.35C277.422 774.98 269.568 776.532 262.243 779.566C254.918 782.6 248.267 787.055 242.675 792.675C237.987 797.363 231.63 799.998 225 800Z" fill="#04009A"/>
</g>
<defs>
<clipPath id="clip0_1162_3906">
<rect width="800" height="800" fill="white"/>
</clipPath>
</defs>
</svg>
