<svg width="16" height="21" viewBox="0 0 16 21" fill="none" xmlns="http://www.w3.org/2000/svg">
<path d="M8.0001 11C9.08789 11 10.1513 10.6774 11.0557 10.0731C11.9602 9.46874 12.6652 8.60976 13.0814 7.60476C13.4977 6.59977 13.6066 5.4939 13.3944 4.42701C13.1822 3.36011 12.6584 2.3801 11.8892 1.61092C11.12 0.841726 10.14 0.317902 9.07309 0.105683C8.0062 -0.106535 6.90033 0.00238308 5.89534 0.418665C4.89034 0.834947 4.03136 1.5399 3.42701 2.44437C2.82266 3.34884 2.5001 4.41221 2.5001 5.5C2.50168 6.95821 3.08166 8.35623 4.11276 9.38734C5.14387 10.4184 6.54189 10.9984 8.0001 11ZM8.0001 2C8.69233 2 9.36902 2.20527 9.94459 2.58986C10.5202 2.97444 10.9688 3.52107 11.2337 4.16061C11.4986 4.80015 11.5679 5.50389 11.4328 6.18282C11.2978 6.86175 10.9645 7.48539 10.475 7.97488C9.98549 8.46436 9.36185 8.7977 8.68291 8.93275C8.00398 9.0678 7.30025 8.99849 6.6607 8.73358C6.02116 8.46867 5.47454 8.02007 5.08995 7.4445C4.70537 6.86893 4.5001 6.19224 4.5001 5.5C4.5001 4.57174 4.86884 3.68151 5.52522 3.02513C6.1816 2.36875 7.07184 2 8.0001 2ZM16.0001 15.967V16.978C16.0017 17.9701 15.6366 18.9277 14.9751 19.667C14.7974 19.8618 14.5501 19.9785 14.2868 19.9918C14.0235 20.0051 13.7656 19.914 13.5693 19.7381C13.3729 19.5623 13.2538 19.316 13.2381 19.0529C13.2223 18.7897 13.3111 18.531 13.4851 18.333C13.8177 17.9601 14.001 17.4777 14.0001 16.978V15.967C14.0067 15.2954 13.7886 14.6409 13.3803 14.1076C12.972 13.5743 12.3971 13.1929 11.7471 13.024C11.5579 12.9752 11.3572 13.0006 11.1861 13.095C10.2129 13.6346 9.11864 13.9182 8.00587 13.9193C6.8931 13.9203 5.79829 13.6388 4.8241 13.101C4.65132 13.0033 4.44762 12.9758 4.2551 13.024C3.60468 13.1925 3.02934 13.5738 2.62069 14.1071C2.21204 14.6404 1.99358 15.2951 2.0001 15.967V16.978C1.99916 17.4777 2.18252 17.9601 2.5151 18.333C2.60412 18.4306 2.67293 18.5449 2.71754 18.6692C2.76215 18.7936 2.78168 18.9255 2.775 19.0574C2.76833 19.1894 2.73558 19.3187 2.67865 19.4379C2.62172 19.5571 2.54173 19.6638 2.44331 19.7519C2.34489 19.8401 2.22999 19.9078 2.10524 19.9513C1.98049 19.9947 1.84836 20.013 1.7165 20.0051C1.58463 19.9972 1.45564 19.9633 1.33696 19.9052C1.21829 19.8472 1.1123 19.7662 1.0251 19.667C0.363568 18.9277 -0.00147273 17.9701 9.57244e-05 16.978V15.967C-0.00681148 14.8496 0.360265 13.762 1.04289 12.8773C1.72552 11.9926 2.68447 11.3617 3.7671 11.085C4.45662 10.9111 5.18661 11.0088 5.8061 11.358C6.48041 11.7283 7.23743 11.922 8.00674 11.9212C8.77604 11.9203 9.53262 11.7248 10.2061 11.353C10.8235 11.0061 11.5508 10.9102 12.2371 11.085C13.319 11.3625 14.277 11.9937 14.9589 12.8783C15.6407 13.7629 16.0072 14.8501 16.0001 15.967Z" fill="white"/>
</svg>
